<?xml version="1.0" encoding="utf-8"?>
<!-- Generator: Adobe Illustrator 27.6.1, SVG Export Plug-In . SVG Version: 6.00 Build 0)  -->
<svg version="1.1" id="Layer_1" xmlns="http://www.w3.org/2000/svg" xmlns:xlink="http://www.w3.org/1999/xlink" x="0px" y="0px"
	 viewBox="0 0 500 500" style="enable-background:new 0 0 500 500;" xml:space="preserve">
<style type="text/css">
	.st0{fill:#0BABDD;enable-background:new    ;}
	.st1{fill:#F36308;enable-background:new    ;}
	.st2{fill:none;stroke:#F36308;stroke-width:2.5;}
	.st3{fill:#FFFFFF;}
	.st4{fill:none;stroke:#0BABDD;stroke-width:2.5;enable-background:new    ;}
	.st5{fill:none;stroke:#F36308;stroke-width:2.2;}
	.st6{fill:none;stroke:#0BABDD;stroke-width:2.2;enable-background:new    ;}
	.st7{fill:none;stroke:#F36308;stroke-width:2.5;stroke-dasharray:2.9541,2.9541;}
	.st8{enable-background:new    ;}
	.st9{fill:url(#SVGID_1_);}
	.st10{fill:url(#SVGID_00000008134482425359512070000000369416852526615964_);}
	.st11{fill:url(#SVGID_00000170977973643057660280000016375202446459934363_);}
	.st12{fill:#231F20;}
	.st13{fill:url(#SVGID_00000017492149734848082140000006379138635899450266_);}
	.st14{fill:#1B6F92;}
	.st15{fill:none;}
	.st16{fill:#343F52;}
</style>
<circle class="st0" cx="322" cy="193.8" r="4.7"/>
<circle class="st0" cx="244.1" cy="168.1" r="4.7"/>
<circle class="st0" cx="369.7" cy="217" r="4.7"/>
<circle class="st0" cx="298.8" cy="157.4" r="5.1"/>
<circle class="st1" cx="177.2" cy="168.1" r="6.4"/>
<circle class="st1" cx="146.1" cy="196.7" r="6.4"/>
<circle class="st0" cx="191.5" cy="200.6" r="5"/>
<circle class="st1" cx="134.8" cy="217" r="5.8"/>
<path class="st2" d="M142.4,230.2c0,0,5.1-33.9,53.4-58.7"/>
<path class="st2" d="M130.7,264.8c0,0-11.7-44.8,27.7-81.6c0,0,34.6-37.2,100.9-34.6"/>
<path class="st3" d="M375.3,263.9"/>
<path class="st4" d="M300.9,158.6c0,0,34.1,10.9,56.8,39.9s19.1,45.2,17.6,65.4"/>
<path class="st5" d="M182.3,200.8c0,0-10.9,7.2-19.1,22.9"/>
<path class="st6" d="M221.8,186.3c0,0-16.5,3.7-29.7,14.3"/>
<path class="st6" d="M244.1,168.1c0,0,29.8-3.1,61.5,13.8c0,0,20.3,10,33.1,31.9"/>
<path class="st6" d="M303.9,190.8c0,0-22-18.1-64.5-15.4"/>
<g>
	<g>
		<path class="st2" d="M199.2,170.1c0,0,0.5-0.2,1.3-0.6"/>
		<path class="st7" d="M203.2,168.3c6.8-2.7,21.9-7.5,44.8-8.3"/>
		<path class="st2" d="M249.5,160c0.5,0,1,0,1.5,0"/>
	</g>
</g>
<line class="st6" x1="222.7" y1="177.9" x2="225.1" y2="186.3"/>
<line class="st6" x1="227.3" y1="176.7" x2="229.3" y2="185.2"/>
<line class="st6" x1="232" y1="175.5" x2="233.7" y2="184.1"/>
<line class="st6" x1="236.7" y1="174.5" x2="238" y2="183.2"/>
<circle class="st0" cx="260.6" cy="148.6" r="6.4"/>
<g class="st8">
	<g>
		<linearGradient id="SVGID_1_" gradientUnits="userSpaceOnUse" x1="203.76" y1="229.0679" x2="357.75" y2="229.0679">
			<stop  offset="0" style="stop-color:#0BABDD"/>
			<stop  offset="1" style="stop-color:#1B6F92"/>
		</linearGradient>
		<path class="st9" d="M351.1,242.2l6.7,3.3c-2.2-5.5-3.6-11-3.6-11c-2.4-5.8,0.8-9.9,0.8-9.9l2.7-3.5l-28.3,0.6
			C293.2,199.7,261.1,200,250,201h0c-25.4,9.5-46.2,26.9-46.2,26.9h14.5c0,0,1.9,0.1,0.7,2.3c0,0-5.3,6.8-8.5,18.8
			c29.1-7,79.9-12,79.9-12l-8,12l21.2,8.5h0.5c2-18.2,17.4-17.5,17.4-17.5c5,0.5,8.8,1.9,11.7,3.8l3.4-16.3
			C336.5,227.4,352.7,242.3,351.1,242.2z M303.9,225.3h-80c0,0-1-7.8-3.1-7.9c0,0,14.6-11,40.7-10.8c0,0,34,1.9,53.8,15L303.9,225.3
			z"/>
	</g>
</g>
<g class="st8">
	<g>
		
			<linearGradient id="SVGID_00000005957373071711494260000014122047701820983710_" gradientUnits="userSpaceOnUse" x1="249.99" y1="229.23" x2="142.5026" y2="229.23">
			<stop  offset="0" style="stop-color:#DB3832"/>
			<stop  offset="0.5025" style="stop-color:#E46E3A"/>
			<stop  offset="1" style="stop-color:#EDA342"/>
		</linearGradient>
		<path style="fill:url(#SVGID_00000005957373071711494260000014122047701820983710_);" d="M250,201c-2.7,0.2-4.2,0.5-4.2,0.5
			c-23.7,2.5-51.7,22.3-51.7,22.3c-32.2,2.1-49.3,18.7-49.3,18.7c-3.9,3-1.8,8.1-1.8,8.1l2,6.9h22.6c1.9-20.1,16.9-20.6,16.9-20.6
			c10.3,0.3,11.3,8.4,11.3,8.4c-4-6.2-13.1-4-13.1-4c-11.6,4.2-11,16.2-11,16.2h31.1c0,0,0-0.1,0-0.1c0-0.1,0-0.1,0-0.2
			c0-0.1,0-0.2,0.1-0.3c3.6-18.3,11.7-27.8,12.6-28.9c0,0,0-0.1,0.1-0.1c0,0,0,0,0,0h-12C203.8,227.9,224.6,210.5,250,201z
			 M164.1,243.5c0,0-4.1,2-12.4,2.7c0,0,2.2-3.2,6.5-5.2l10.1-6.1C168.2,235.1,166.6,239.2,164.1,243.5z"/>
	</g>
</g>
<g>
</g>
<g>
</g>
<g class="st8">
	
		<linearGradient id="SVGID_00000121246298891936774620000003334987522921172667_" gradientUnits="userSpaceOnUse" x1="148.6371" y1="306.5166" x2="148.6371" y2="274.3125">
		<stop  offset="0" style="stop-color:#DB3832"/>
		<stop  offset="1" style="stop-color:#EDA342"/>
	</linearGradient>
	<path style="fill:url(#SVGID_00000121246298891936774620000003334987522921172667_);" d="M156.6,306.5l-8.3-10.2h-9.2v10.2H130
		v-32.2h22c8,0,14.2,3.6,14.2,11c0,5.4-3.3,8.8-8.2,10.3l9.2,10.9H156.6z M151.3,289.5c3.3,0,5.6-0.9,5.6-4s-2.4-4-5.6-4h-12.3v8.1
		H151.3z"/>
</g>
<g>
	<path class="st12" d="M210,299.3v7.2h-33.6v-32.2h33.1v7.2h-24.1v5.3h19.9v6.9h-19.9v5.7H210z"/>
</g>
<g>
	<path class="st12" d="M279.4,274.3v32.2h-8.7V286l-11.9,15.7h-0.4L246.4,286v20.6H238v-32.2h9.5l11.2,15.5l11.3-15.5H279.4z"/>
</g>
<g>
	<path class="st12" d="M317,300.4h-18.1l-3.1,6.2h-10.1l17.1-32.2h10.5l17.1,32.2h-10.2L317,300.4z M313.7,293.7l-5.7-11.4
		l-5.8,11.4H313.7z"/>
</g>
<g class="st8">
	
		<linearGradient id="SVGID_00000180348370458832114090000002049163890144767154_" gradientUnits="userSpaceOnUse" x1="355.743" y1="306.52" x2="355.743" y2="274.31">
		<stop  offset="0" style="stop-color:#1B6F92"/>
		<stop  offset="1" style="stop-color:#0BABDD"/>
	</linearGradient>
	<path style="fill:url(#SVGID_00000180348370458832114090000002049163890144767154_);" d="M374.3,285.6c0,7.5-5.8,11.3-14.6,11.3
		h-13v9.7h-9.4V290h21.6c3.5,0,5.9-1.1,5.9-4.3c0-3.3-2.4-4.3-5.9-4.3h-12.1l-9.5-7.1h22.4C368.4,274.3,374.3,278.2,374.3,285.6z"/>
</g>
<polygon class="st12" points="217.3,295.7 230.3,295.7 223.8,307.5 "/>
<polygon class="st0" points="230.3,288.6 217.3,288.6 223.8,276.8 "/>
<g>
	<path class="st12" d="M164.4,342.4h-4.8l-2.5-5.9h-9.7l-2.5,5.9h-4.5l9.8-22.3h4.3L164.4,342.4z M155.7,332.9l-3.3-8l-3.4,8H155.7z
		"/>
	<path class="st12" d="M185.6,342.8c-2.3,0-4.4-0.5-6.2-1.5c-1.8-1-3.2-2.4-4.1-4.1c-1-1.7-1.4-3.7-1.4-5.9c0-2.2,0.5-4.2,1.4-5.9
		c1-1.7,2.3-3.1,4.1-4.1c1.8-1,3.8-1.5,6.1-1.5c4.1,0,7.4,1.6,9.8,4.9l-3.4,2.2c-0.8-1.1-1.7-2-2.8-2.5c-1-0.5-2.2-0.8-3.6-0.8
		c-2.2,0-4,0.7-5.4,2.1c-1.3,1.4-2,3.3-2,5.7c0,2.4,0.7,4.3,2,5.7c1.3,1.4,3.1,2.1,5.3,2.1c2.6,0,4.8-1.2,6.4-3.5l3.5,2.1
		C193.1,341.1,189.7,342.8,185.6,342.8z"/>
	<path class="st12" d="M228.2,342.4h-4.8l-2.5-5.9h-9.7l-2.5,5.9h-4.5l9.8-22.3h4.3L228.2,342.4z M219.5,332.9l-3.3-8l-3.4,8H219.5z
		"/>
	<path class="st12" d="M248.5,342.4H239v-22.3h9.5c2.4,0,4.5,0.5,6.3,1.5c1.8,1,3.1,2.3,4,4c0.9,1.7,1.3,3.6,1.3,5.7
		c0,2.1-0.4,4-1.3,5.7c-0.9,1.7-2.2,3-4,4C253.1,341.9,250.9,342.4,248.5,342.4z M248.5,323.9h-5.1v14.8h5.1c2.3,0,4.1-0.7,5.4-2
		s1.9-3.1,1.9-5.5c0-2.3-0.6-4.1-1.9-5.5S250.9,323.9,248.5,323.9z"/>
	<path class="st12" d="M290.5,342.4h-17.8v-22.3h17.4v3.7H277v5h11.4v3.6H277v6.2h13.5V342.4z"/>
	<path class="st12" d="M328.2,342.4H324v-16.1l-6.7,16.1h-3.5l-6.7-16.1v16.1h-4.2v-22.3h5.7l7,16.7l7-16.7h5.6V342.4z"/>
	<path class="st12" d="M361.7,320.1l-9.3,13.2v9.1H348v-9l-9.2-13.2h5l6.4,9.5l6.5-9.5H361.7z"/>
</g>
<path class="st14" d="M303.3,257.5h-94.8c0.5-3,1.1-5.8,1.8-8.4c29.1-7,79.9-12,79.9-12l-8,12L303.3,257.5z"/>
<path class="st15" d="M331.5,251.3c0,0,0-0.5,0.3-1.3L331.5,251.3z"/>
<path class="st14" d="M351.1,242.2c-1.7-0.2-4.5,0.2-4.5,0.2c-5.6,0.2-9.1,1.5-11.3,3.1c-0.7-0.6-1.4-1.2-2.2-1.7l3.4-16.3
	C336.5,227.4,352.7,242.3,351.1,242.2z"/>
<path class="st16" d="M354.5,257h-12.6c0,0-0.8-6.6-6.5-11.6c2.2-1.6,5.7-2.9,11.3-3.1c0,0,2.8-0.3,4.5-0.2l6.7,3.3
	c0.6,1.5,1.3,3.1,2,4.5C359.8,250,363.8,257.4,354.5,257z"/>
</svg>
